<?xml version="1.0" ?>
<svg
        id="root"
        version="1.1"
        viewBox="0 0 64 64"
        fill="currentColor"
        xmlns="http://www.w3.org/2000/svg"
>
    <path d="M21.7 45.1c.8.6 1.6 1.1 2.4 1.6l-.5.9c-.9-.5-1.8-1.1-2.6-1.7l.7-.8zm-4.1-3c.6.8 1.3 1.6 2 2.4l.7-.7c-.7-.7-1.3-1.4-1.9-2.2l-.8.5zm-2.1-9.7h-1c0 1 .1 2.1.3 3.1l1-.2c-.2-.9-.3-1.9-.3-2.9zm-.2 5.1c.3 1 .7 1.9 1.2 2.8l.9-.5c-.5-.9-.8-1.8-1.1-2.7l-1 .4zm10.6 10l-.4.9c.1.1.3.1.4.2.8.3 1.7.5 2.5.7l.2-1c-.8-.2-1.6-.4-2.4-.7 0 0-.1-.1-.3-.1zM21.1 38c-.5-.8-.8-1.7-1.1-2.7l-1 .3c.3 1 .7 2 1.2 2.9l.9-.5zm1.1 1.6l-.8.6c.6.8 1.4 1.6 2.2 2.2l.6-.8c-.8-.6-1.4-1.2-2-2zm5.9 5.3l.3-1c-.2-.1-.4-.1-.6-.2-.7-.3-1.4-.6-2-.9l-.5.9c.7.4 1.4.7 2.2 1 .2 0 .4.1.6.2zm3-5.1c-.6-.1-1.2-.2-1.8-.4-.3-.1-.6-.2-.9-.4l-.4.9c.3.2.7.3 1 .4.6.2 1.3.4 2 .5l.1-1zm-4.9-1.1l.7-.8c-.7-.6-1.3-1.4-1.8-2.2l-.9.5c.5 1 1.2 1.8 2 2.5zm21.1 9.2l-.3.3c-.4.3-.7.6-1.1 1l-.1.1c-3.2 2.6-7.2 4.3-11.6 4.7h-.3c-.6.1-1.3.1-1.9.1-.6 0-1.2 0-1.8-.1h-.1c-.6-.1-1.2-.1-1.8-.2-2.4-.4-4.7-1.2-6.7-2.4-.2-.1-.4-.3-.7-.4-.1 0-.2-.1-.2-.1-1.5-.9-2.9-2-4.1-3.2 0 0-.1 0-.1-.1l-.6-.6c-.1-.1-.1-.2-.2-.2l-.4-.4c-.1-.1-.2-.3-.4-.4-.1-.1-.1-.2-.2-.2-.2-.2-.3-.4-.5-.7C11.6 41.5 10 37 10 32.2c0-4.1 1.1-8 3.1-11.3.1-.1.2-.3.3-.4.2-.4.5-.8.8-1.1.2-.3.4-.6.6-.8.2-.2.4-.5.6-.7l.9-.9.6-.6c.3-.3.6-.5.9-.8.3-.3.6-.5 1-.8.2-.1.4-.3.6-.4.5-.3.9-.7 1.4-.9.1 0 .1-.1.2-.1.6-.3 1.2-.7 1.8-.9.6-.3 1.3-.6 2-.8.6-.2 1.3-.4 2-.6h.2c.6-.1 1.2-.3 1.8-.4.1 0 .3 0 .4-.1.6-.1 1.1-.1 1.7-.2h2.5c.6 0 1.2.1 1.8.2h.1C45.9 11.9 54 21.1 54 32.1c0 3.2-.7 6.3-2 9.1 0 0 0 .1-.1.1-.2.5-.5 1-.7 1.4 0 .1-.1.2-.1.3-.2.4-.4.7-.6 1.1-.1.1-.1.2-.2.3-.2.4-.5.7-.8 1.1-.1.2-.2.3-.4.5-.2.3-.5.6-.7.8l-.4.4c-.2.2-.5.4-.7.7zm-7.4-34.2l-6.6 17.8L51.1 38c.6-1.9.9-3.8.9-5.9 0-8.3-5-15.3-12.1-18.4zm9.3 28.5c.4-.8.9-1.5 1.2-2.4l-17.3-6.3 1.7 18.3h.1l1.5-.3h.2c3-.7 5.8-2.1 8.1-4.1.4-.4.9-.7 1.3-1.1l.1-.1c1.2-1.2 2.3-2.6 3.1-4zM31.4 52h1.5l-.2-2.5H32c-.5 0-.9 0-1.4-.1l.1-1h1.9l-.3-3.2H32c-.6 0-1.2 0-1.8-.1l.1-1c.6.1 1.2.1 1.9.1L31.1 33l-6.9-.7c0 .6.1 1.2.2 1.8l-1 .3c-.2-.7-.3-1.4-.3-2.2l-3.5-.4v.3c0 .5 0 .9.1 1.4l-1 .1c-.1-.5-.1-1-.1-1.5v-.4L12 31v2.4c0 .4.1.8.1 1.2 0 .2.1.4.1.6.1.5.2.9.3 1.4 0 .1.1.3.1.4.1.5.3 1 .4 1.5 0 .1.1.2.1.3l.6 1.5c.1.1.1.2.2.4.2.4.4.9.7 1.3.1.2.2.3.3.5.2.4.5.7.7 1.1.2.2.3.4.5.6.2.3.4.6.7.8.2.3.4.5.7.7l.6.6c.3.3.5.5.8.7.2.2.4.4.6.5.3.2.6.4.9.7.2.2.5.3.7.5.3.2.6.3.8.5.3.2.6.3.9.5.2.1.5.2.7.4.4.2.8.3 1.2.5.2.1.4.2.7.2.4.1.8.3 1.2.4.2.1.5.1.7.2.4.1.8.2 1.2.2.3 0 .5.1.8.1.4 0 .7.1 1.1.1.4.2.7.2 1 .2zM13.7 24c0 .1-.1.2-.1.3l10.6-10.6c-.2.1-.5.2-.7.3-.2.1-.3.1-.4.2-.3.2-.7.3-1 .5-.2.1-.4.2-.6.4-.3.2-.5.3-.8.5-.4.3-.9.6-1.3 1l-.3.3c-.3.3-.7.6-1 .9l-.3.3c-.3.3-.6.7-.9 1l-.3.3c-.3.4-.7.9-1 1.3l-.1.1-.9 1.5c-.1.2-.2.3-.3.5-.3.5-.4.8-.6 1.2zm13.6-11.4c-.3.1-.6.2-.9.2L12.8 26.4c0 .1-.1.3-.1.4-.1.2-.1.5-.2.7-.1.4-.2.8-.2 1.2v.3l2.4.2L31.9 12h-.4c-.4 0-.7 0-1.1.1-.3 0-.7.1-1 .1-.2 0-.4.1-.7.1-.4.1-.7.1-1.1.2-.1.1-.2.1-.3.1zm6.4-.5h-.6L15.9 29.4l4.2.4 17.1-17.1c-.2-.1-.5-.1-.7-.2-.3-.1-.6-.1-.9-.2-.3-.1-.6-.1-.9-.1-.4 0-.7 0-1-.1zm.6 10.8l-7.6 7.6 4.6.5 3-8.1zm3.6-9.5L21.3 29.9l4.2.4 9.7-9.7 2.7-7.2z"/>
</svg>